<mxfile host="app.diagrams.net" modified="2024-03-28T19:32:17.140Z" agent="Mozilla/5.0 (Windows NT 10.0; Win64; x64) AppleWebKit/537.36 (KHTML, like Gecko) Chrome/120.0.0.0 YaBrowser/24.1.0.0 Safari/537.36" etag="2mKMEY9vXcKfmx6rIRMD" version="24.0.7" type="github">
  <diagram name="Страница — 1" id="gZ88AADPKEb2cn5DxEEF">
    <mxGraphModel dx="709" dy="818" grid="1" gridSize="10" guides="1" tooltips="1" connect="1" arrows="1" fold="1" page="1" pageScale="1" pageWidth="827" pageHeight="1169" math="0" shadow="0">
      <root>
        <mxCell id="0" />
        <mxCell id="1" parent="0" />
        <mxCell id="-VZiagVwhJl5ThWWz1-O-1" value="Сотрудник" style="shape=umlActor;verticalLabelPosition=bottom;verticalAlign=top;html=1;outlineConnect=0;" vertex="1" parent="1">
          <mxGeometry x="190" y="110" width="30" height="60" as="geometry" />
        </mxCell>
        <mxCell id="-VZiagVwhJl5ThWWz1-O-2" value="Интерфейс АСУ" style="rounded=0;whiteSpace=wrap;html=1;" vertex="1" parent="1">
          <mxGeometry x="361" y="130" width="106" height="40" as="geometry" />
        </mxCell>
        <mxCell id="-VZiagVwhJl5ThWWz1-O-3" value="Сервер СУБД, PHP" style="rounded=0;whiteSpace=wrap;html=1;" vertex="1" parent="1">
          <mxGeometry x="520" y="130" width="106" height="40" as="geometry" />
        </mxCell>
        <mxCell id="-VZiagVwhJl5ThWWz1-O-4" value="База данных" style="rounded=0;whiteSpace=wrap;html=1;" vertex="1" parent="1">
          <mxGeometry x="690" y="130" width="106" height="40" as="geometry" />
        </mxCell>
        <mxCell id="-VZiagVwhJl5ThWWz1-O-7" value="" style="endArrow=none;dashed=1;html=1;rounded=0;" edge="1" parent="1">
          <mxGeometry width="50" height="50" relative="1" as="geometry">
            <mxPoint x="205" y="600" as="sourcePoint" />
            <mxPoint x="205" y="190" as="targetPoint" />
          </mxGeometry>
        </mxCell>
        <mxCell id="-VZiagVwhJl5ThWWz1-O-5" value="" style="rounded=0;whiteSpace=wrap;html=1;" vertex="1" parent="1">
          <mxGeometry x="200" y="210" width="10" height="310" as="geometry" />
        </mxCell>
        <mxCell id="-VZiagVwhJl5ThWWz1-O-8" value="" style="endArrow=none;dashed=1;html=1;rounded=0;" edge="1" parent="1">
          <mxGeometry width="50" height="50" relative="1" as="geometry">
            <mxPoint x="414" y="600" as="sourcePoint" />
            <mxPoint x="414" y="190" as="targetPoint" />
          </mxGeometry>
        </mxCell>
        <mxCell id="-VZiagVwhJl5ThWWz1-O-9" value="" style="rounded=0;whiteSpace=wrap;html=1;" vertex="1" parent="1">
          <mxGeometry x="409" y="210" width="10" height="310" as="geometry" />
        </mxCell>
        <mxCell id="-VZiagVwhJl5ThWWz1-O-10" value="" style="endArrow=none;dashed=1;html=1;rounded=0;" edge="1" parent="1">
          <mxGeometry width="50" height="50" relative="1" as="geometry">
            <mxPoint x="573" y="600" as="sourcePoint" />
            <mxPoint x="573" y="190" as="targetPoint" />
          </mxGeometry>
        </mxCell>
        <mxCell id="-VZiagVwhJl5ThWWz1-O-11" value="" style="rounded=0;whiteSpace=wrap;html=1;" vertex="1" parent="1">
          <mxGeometry x="568" y="240" width="10" height="250" as="geometry" />
        </mxCell>
        <mxCell id="-VZiagVwhJl5ThWWz1-O-12" value="" style="endArrow=none;dashed=1;html=1;rounded=0;" edge="1" parent="1">
          <mxGeometry width="50" height="50" relative="1" as="geometry">
            <mxPoint x="743" y="600" as="sourcePoint" />
            <mxPoint x="743" y="190" as="targetPoint" />
          </mxGeometry>
        </mxCell>
        <mxCell id="-VZiagVwhJl5ThWWz1-O-13" value="" style="rounded=0;whiteSpace=wrap;html=1;" vertex="1" parent="1">
          <mxGeometry x="738" y="280" width="10" height="60" as="geometry" />
        </mxCell>
        <mxCell id="-VZiagVwhJl5ThWWz1-O-14" value="" style="endArrow=open;html=1;rounded=0;exitX=1;exitY=0;exitDx=0;exitDy=0;entryX=0;entryY=0;entryDx=0;entryDy=0;endFill=0;" edge="1" parent="1" source="-VZiagVwhJl5ThWWz1-O-5" target="-VZiagVwhJl5ThWWz1-O-9">
          <mxGeometry width="50" height="50" relative="1" as="geometry">
            <mxPoint x="510" y="460" as="sourcePoint" />
            <mxPoint x="560" y="410" as="targetPoint" />
          </mxGeometry>
        </mxCell>
        <mxCell id="-VZiagVwhJl5ThWWz1-O-23" value="1. Ввод логина и пароля" style="edgeLabel;html=1;align=center;verticalAlign=middle;resizable=0;points=[];" vertex="1" connectable="0" parent="-VZiagVwhJl5ThWWz1-O-14">
          <mxGeometry x="0.0519" relative="1" as="geometry">
            <mxPoint y="-10" as="offset" />
          </mxGeometry>
        </mxCell>
        <mxCell id="-VZiagVwhJl5ThWWz1-O-15" value="" style="endArrow=open;html=1;rounded=0;entryX=0;entryY=0;entryDx=0;entryDy=0;endFill=0;" edge="1" parent="1">
          <mxGeometry width="50" height="50" relative="1" as="geometry">
            <mxPoint x="420" y="240" as="sourcePoint" />
            <mxPoint x="568" y="240" as="targetPoint" />
          </mxGeometry>
        </mxCell>
        <mxCell id="-VZiagVwhJl5ThWWz1-O-24" value="2. Формирование запроса" style="edgeLabel;html=1;align=center;verticalAlign=middle;resizable=0;points=[];" vertex="1" connectable="0" parent="-VZiagVwhJl5ThWWz1-O-15">
          <mxGeometry x="0.4032" relative="1" as="geometry">
            <mxPoint x="-34" y="-10" as="offset" />
          </mxGeometry>
        </mxCell>
        <mxCell id="-VZiagVwhJl5ThWWz1-O-16" value="" style="endArrow=open;html=1;rounded=0;entryX=0;entryY=0;entryDx=0;entryDy=0;endFill=0;" edge="1" parent="1">
          <mxGeometry width="50" height="50" relative="1" as="geometry">
            <mxPoint x="580" y="280" as="sourcePoint" />
            <mxPoint x="738" y="280" as="targetPoint" />
          </mxGeometry>
        </mxCell>
        <mxCell id="-VZiagVwhJl5ThWWz1-O-26" value="3. Проверка введенных данных" style="edgeLabel;html=1;align=center;verticalAlign=middle;resizable=0;points=[];" vertex="1" connectable="0" parent="-VZiagVwhJl5ThWWz1-O-16">
          <mxGeometry x="0.212" y="-4" relative="1" as="geometry">
            <mxPoint x="-16" y="-14" as="offset" />
          </mxGeometry>
        </mxCell>
        <mxCell id="-VZiagVwhJl5ThWWz1-O-17" value="" style="endArrow=none;html=1;rounded=0;entryX=0;entryY=1;entryDx=0;entryDy=0;endFill=0;startArrow=open;startFill=0;dashed=1;" edge="1" parent="1" target="-VZiagVwhJl5ThWWz1-O-13">
          <mxGeometry width="50" height="50" relative="1" as="geometry">
            <mxPoint x="578" y="340" as="sourcePoint" />
            <mxPoint x="736" y="340" as="targetPoint" />
          </mxGeometry>
        </mxCell>
        <mxCell id="-VZiagVwhJl5ThWWz1-O-27" value="4. Результат проверки" style="edgeLabel;html=1;align=center;verticalAlign=middle;resizable=0;points=[];" vertex="1" connectable="0" parent="-VZiagVwhJl5ThWWz1-O-17">
          <mxGeometry x="0.1427" relative="1" as="geometry">
            <mxPoint x="-9" y="-10" as="offset" />
          </mxGeometry>
        </mxCell>
        <mxCell id="-VZiagVwhJl5ThWWz1-O-18" value="" style="endArrow=none;html=1;rounded=0;entryX=0;entryY=1;entryDx=0;entryDy=0;endFill=0;startArrow=open;startFill=0;dashed=1;" edge="1" parent="1">
          <mxGeometry width="50" height="50" relative="1" as="geometry">
            <mxPoint x="420" y="490" as="sourcePoint" />
            <mxPoint x="568" y="490" as="targetPoint" />
          </mxGeometry>
        </mxCell>
        <mxCell id="-VZiagVwhJl5ThWWz1-O-31" value="8. Передача информации" style="edgeLabel;html=1;align=center;verticalAlign=middle;resizable=0;points=[];" vertex="1" connectable="0" parent="-VZiagVwhJl5ThWWz1-O-18">
          <mxGeometry x="0.1257" y="-1" relative="1" as="geometry">
            <mxPoint x="-3" y="-11" as="offset" />
          </mxGeometry>
        </mxCell>
        <mxCell id="-VZiagVwhJl5ThWWz1-O-19" value="" style="endArrow=none;html=1;rounded=0;entryX=0;entryY=1;entryDx=0;entryDy=0;endFill=0;startArrow=open;startFill=0;dashed=1;" edge="1" parent="1">
          <mxGeometry width="50" height="50" relative="1" as="geometry">
            <mxPoint x="420" y="440" as="sourcePoint" />
            <mxPoint x="568" y="440" as="targetPoint" />
          </mxGeometry>
        </mxCell>
        <mxCell id="-VZiagVwhJl5ThWWz1-O-30" value="7. Формирование&amp;nbsp;&lt;div&gt;сессионной cookie&lt;/div&gt;" style="edgeLabel;html=1;align=center;verticalAlign=middle;resizable=0;points=[];" vertex="1" connectable="0" parent="-VZiagVwhJl5ThWWz1-O-19">
          <mxGeometry x="0.3308" y="1" relative="1" as="geometry">
            <mxPoint x="-17" y="-19" as="offset" />
          </mxGeometry>
        </mxCell>
        <mxCell id="-VZiagVwhJl5ThWWz1-O-20" value="" style="endArrow=none;html=1;rounded=0;entryX=-0.314;entryY=0.971;entryDx=0;entryDy=0;endFill=0;startArrow=open;startFill=0;dashed=1;entryPerimeter=0;" edge="1" parent="1" target="-VZiagVwhJl5ThWWz1-O-9">
          <mxGeometry width="50" height="50" relative="1" as="geometry">
            <mxPoint x="210" y="510" as="sourcePoint" />
            <mxPoint x="399" y="510" as="targetPoint" />
          </mxGeometry>
        </mxCell>
        <mxCell id="-VZiagVwhJl5ThWWz1-O-21" value="" style="endArrow=open;html=1;rounded=0;endFill=0;" edge="1" parent="1">
          <mxGeometry width="50" height="50" relative="1" as="geometry">
            <mxPoint x="578" y="364.71" as="sourcePoint" />
            <mxPoint x="580" y="380" as="targetPoint" />
            <Array as="points">
              <mxPoint x="630" y="365" />
              <mxPoint x="630" y="380" />
            </Array>
          </mxGeometry>
        </mxCell>
        <mxCell id="-VZiagVwhJl5ThWWz1-O-28" value="5. session_start()" style="edgeLabel;html=1;align=center;verticalAlign=middle;resizable=0;points=[];" vertex="1" connectable="0" parent="-VZiagVwhJl5ThWWz1-O-21">
          <mxGeometry x="-0.4415" y="-1" relative="1" as="geometry">
            <mxPoint x="70" y="-1" as="offset" />
          </mxGeometry>
        </mxCell>
        <mxCell id="-VZiagVwhJl5ThWWz1-O-22" value="" style="endArrow=open;html=1;rounded=0;endFill=0;" edge="1" parent="1">
          <mxGeometry width="50" height="50" relative="1" as="geometry">
            <mxPoint x="578" y="400" as="sourcePoint" />
            <mxPoint x="580" y="415.29" as="targetPoint" />
            <Array as="points">
              <mxPoint x="630" y="400.29" />
              <mxPoint x="630" y="415.29" />
            </Array>
          </mxGeometry>
        </mxCell>
        <mxCell id="-VZiagVwhJl5ThWWz1-O-29" value="6. Создание глобального&amp;nbsp;&lt;div&gt;массива $_SESSION&lt;/div&gt;" style="edgeLabel;html=1;align=center;verticalAlign=middle;resizable=0;points=[];" vertex="1" connectable="0" parent="-VZiagVwhJl5ThWWz1-O-22">
          <mxGeometry x="0.0079" y="-1" relative="1" as="geometry">
            <mxPoint x="31" y="23" as="offset" />
          </mxGeometry>
        </mxCell>
        <mxCell id="-VZiagVwhJl5ThWWz1-O-32" value="9. Произведение авторизации" style="edgeLabel;html=1;align=center;verticalAlign=middle;resizable=0;points=[];" vertex="1" connectable="0" parent="1">
          <mxGeometry x="299.99826086956523" y="500" as="geometry" />
        </mxCell>
      </root>
    </mxGraphModel>
  </diagram>
</mxfile>
